<svg width="20" height="21" viewBox="0 0 20 21" fill="none" xmlns="http://www.w3.org/2000/svg">
<path d="M5 4.5V1.5C5 1.23478 5.10536 0.98043 5.29289 0.792893C5.48043 0.605357 5.73478 0.5 6 0.5H14C14.2652 0.5 14.5196 0.605357 14.7071 0.792893C14.8946 0.98043 15 1.23478 15 1.5V4.5H19C19.2652 4.5 19.5196 4.60536 19.7071 4.79289C19.8946 4.98043 20 5.23478 20 5.5V19.5C20 19.7652 19.8946 20.0196 19.7071 20.2071C19.5196 20.3946 19.2652 20.5 19 20.5H1C0.734784 20.5 0.48043 20.3946 0.292893 20.2071C0.105357 20.0196 0 19.7652 0 19.5V5.5C0 5.23478 0.105357 4.98043 0.292893 4.79289C0.48043 4.60536 0.734784 4.5 1 4.5H5ZM2 15.5V18.5H18V15.5H2ZM2 13.5H18V6.5H2V13.5ZM7 2.5V4.5H13V2.5H7ZM9 10.5H11V12.5H9V10.5Z" fill="black"/>
</svg>
