<svg width="29" height="30" viewBox="0 0 29 30" fill="none" xmlns="http://www.w3.org/2000/svg">
<path opacity="0.1" fill-rule="evenodd" clip-rule="evenodd" d="M0 15C0 6.99187 6.49187 0.5 14.5 0.5C22.5081 0.5 29 6.99187 29 15C29 23.0081 22.5081 29.5 14.5 29.5C6.49187 29.5 0 23.0081 0 15Z" fill="white"/>
<path fill-rule="evenodd" clip-rule="evenodd" d="M14.5008 7.2666C12.4005 7.2666 12.1369 7.27578 11.312 7.31332C10.4888 7.35102 9.92679 7.48136 9.43507 7.67261C8.92644 7.87013 8.49498 8.13436 8.06513 8.56437C7.63496 8.99421 7.37074 9.42567 7.17257 9.93415C6.98084 10.426 6.85034 10.9881 6.81329 11.8111C6.77639 12.636 6.76672 12.8997 6.76672 15C6.76672 17.1003 6.77607 17.3631 6.81345 18.188C6.85131 19.0112 6.98165 19.5732 7.17273 20.0649C7.37041 20.5736 7.63464 21.005 8.06465 21.4349C8.49434 21.865 8.9258 22.1299 9.43411 22.3274C9.92615 22.5187 10.4883 22.649 11.3114 22.6867C12.1363 22.7242 12.3997 22.7334 14.4998 22.7334C16.6002 22.7334 16.863 22.7242 17.6879 22.6867C18.5112 22.649 19.0738 22.5187 19.5658 22.3274C20.0743 22.1299 20.5051 21.865 20.9348 21.4349C21.365 21.005 21.6292 20.5736 21.8274 20.0651C22.0175 19.5732 22.148 19.0111 22.1867 18.1881C22.2237 17.3632 22.2334 17.1003 22.2334 15C22.2334 12.8997 22.2237 12.6362 22.1867 11.8113C22.148 10.988 22.0175 10.426 21.8274 9.93431C21.6292 9.42567 21.365 8.99421 20.9348 8.56437C20.5047 8.13419 20.0745 7.86997 19.5654 7.67261C19.0724 7.48136 18.5101 7.35102 17.6868 7.31332C16.8619 7.27578 16.5993 7.2666 14.4984 7.2666H14.5008ZM13.807 8.66021C14.0129 8.65988 14.2426 8.66021 14.5007 8.66021C16.5656 8.66021 16.8103 8.66762 17.6257 8.70467C18.3797 8.73915 18.7889 8.86514 19.0615 8.97099C19.4224 9.11116 19.6797 9.27872 19.9502 9.54939C20.2209 9.82006 20.3885 10.0778 20.5289 10.4387C20.6348 10.711 20.7609 11.1202 20.7953 11.8742C20.8323 12.6895 20.8404 12.9344 20.8404 14.9982C20.8404 17.0621 20.8323 17.307 20.7953 18.1222C20.7608 18.8762 20.6348 19.2854 20.5289 19.5577C20.3888 19.9186 20.2209 20.1756 19.9502 20.4461C19.6796 20.7168 19.4226 20.8843 19.0615 21.0245C18.7893 21.1308 18.3797 21.2565 17.6257 21.291C16.8105 21.328 16.5656 21.3361 14.5007 21.3361C12.4358 21.3361 12.191 21.328 11.3758 21.291C10.6218 21.2562 10.2126 21.1302 9.93981 21.0243C9.57891 20.8842 9.32113 20.7166 9.05046 20.4459C8.7798 20.1753 8.61224 19.9181 8.47175 19.5571C8.3659 19.2848 8.23975 18.8756 8.20543 18.1216C8.16837 17.3063 8.16096 17.0614 8.16096 14.9963C8.16096 12.9311 8.16837 12.6875 8.20543 11.8723C8.23991 11.1183 8.3659 10.7091 8.47175 10.4365C8.61192 10.0756 8.7798 9.8178 9.05046 9.54713C9.32113 9.27646 9.57891 9.1089 9.93981 8.96841C10.2124 8.86208 10.6218 8.73641 11.3758 8.70177C12.0892 8.66955 12.3657 8.65988 13.807 8.65827V8.66021ZM18.6288 9.94428C18.1164 9.94428 17.7008 10.3595 17.7008 10.872C17.7008 11.3843 18.1164 11.8 18.6288 11.8C19.1411 11.8 19.5568 11.3843 19.5568 10.872C19.5568 10.3596 19.1411 9.94428 18.6288 9.94428ZM14.5008 11.0286C12.3076 11.0286 10.5294 12.8068 10.5294 15C10.5294 17.1932 12.3076 18.9706 14.5008 18.9706C16.694 18.9706 18.4716 17.1932 18.4716 15C18.4716 12.8068 16.694 11.0286 14.5008 11.0286ZM14.5008 12.4222C15.9244 12.4222 17.0786 13.5762 17.0786 15C17.0786 16.4236 15.9244 17.5778 14.5008 17.5778C13.077 17.5778 11.923 16.4236 11.923 15C11.923 13.5762 13.077 12.4222 14.5008 12.4222Z" fill="white"/>
</svg>
