<svg width="172" height="172" viewBox="0 0 172 172" fill="none" xmlns="http://www.w3.org/2000/svg">
<path d="M171.198 13.3748V15.1582C168.597 15.1582 166.102 16.1915 164.263 18.0309C162.423 19.8703 161.39 22.3651 161.39 24.9664C161.39 26.6962 162.424 29.2017 163.646 30.4144L165.75 32.5187C166.574 33.4111 167.116 34.5264 167.31 35.7253C167.503 36.9241 167.339 38.1535 166.838 39.2596L166.454 40.0086C165.858 41.0758 165 41.9738 163.962 42.618C162.923 43.2622 161.737 43.6315 160.516 43.6912H129.29V74.917C129.35 75.8068 129.628 76.6683 130.099 77.4255C130.57 78.1827 131.22 78.8125 131.992 79.2593L132.741 79.6427C134.15 80.3472 136.308 79.9994 137.413 78.8848L139.517 76.7805C141.361 75.1079 143.728 74.1276 146.214 74.0075C147.736 74.0063 149.244 74.305 150.65 74.8864C152.057 75.4679 153.336 76.3207 154.413 77.3962C155.49 78.4718 156.345 79.749 156.928 81.1549C157.512 82.5608 157.813 84.0679 157.814 85.5901C157.815 87.1123 157.517 88.6199 156.935 90.0267C156.354 91.4335 155.501 92.712 154.425 93.7892C153.35 94.8664 152.073 95.7212 150.667 96.3048C149.261 96.8884 147.754 97.1894 146.232 97.1905C143.739 97.0774 141.364 96.0965 139.517 94.4175L137.413 92.3132C136.788 91.7543 136.016 91.386 135.188 91.2517C134.36 91.1174 133.511 91.2227 132.741 91.5553L131.992 91.9387C131.22 92.3855 130.57 93.0153 130.099 93.7725C129.628 94.5298 129.35 95.3912 129.29 96.2811V127.507H160.516C161.737 127.566 162.923 127.936 163.962 128.58C165 129.224 165.858 130.122 166.454 131.189L166.838 131.938C167.341 133.044 167.507 134.274 167.313 135.473C167.12 136.673 166.576 137.788 165.75 138.679L163.646 140.784C162.301 142.294 161.506 144.213 161.39 146.232C161.39 148.833 162.423 151.328 164.263 153.167C166.102 155.006 168.597 156.04 171.198 156.04V157.823C168.124 157.823 165.175 156.602 163.002 154.428C160.828 152.254 159.606 149.306 159.606 146.232C159.72 143.739 160.701 141.364 162.38 139.517L164.484 137.413C165.043 136.788 165.411 136.016 165.545 135.188C165.68 134.36 165.574 133.511 165.242 132.741L164.858 131.992C164.411 131.22 163.782 130.57 163.025 130.099C162.267 129.628 161.406 129.35 160.516 129.29H129.29V160.516C129.231 161.737 128.861 162.923 128.217 163.962C127.573 165 126.675 165.858 125.608 166.454L124.859 166.838C123.753 167.341 122.523 167.507 121.324 167.313C120.124 167.12 119.009 166.576 118.118 165.75L116.013 163.646C114.504 162.301 112.584 161.506 110.565 161.39C107.964 161.39 105.469 162.423 103.63 164.263C101.791 166.102 100.757 168.597 100.757 171.198H98.9739C98.9739 168.124 100.195 165.175 102.369 163.002C104.543 160.828 107.491 159.606 110.565 159.606C112.768 159.606 115.728 160.828 117.28 162.38L119.384 164.484C120.01 165.042 120.782 165.409 121.61 165.544C122.437 165.678 123.286 165.573 124.056 165.242L124.805 164.858C125.577 164.411 126.227 163.782 126.698 163.025C127.169 162.267 127.447 161.406 127.507 160.516V129.29H96.2811C95.0601 129.231 93.8744 128.861 92.8355 128.217C91.7966 127.573 90.9388 126.675 90.3426 125.608L89.9592 124.859C89.4557 123.753 89.2904 122.523 89.4839 121.324C89.6775 120.124 90.2213 119.009 91.047 118.118L93.1513 116.013C94.4958 114.504 95.2907 112.584 95.4072 110.565C95.4072 107.964 94.3739 105.469 92.5345 103.63C90.6951 101.791 88.2003 100.757 85.599 100.757C82.9977 100.757 80.5029 101.791 78.6636 103.63C76.8242 105.469 75.7908 107.964 75.7908 110.565C75.7908 112.295 76.8251 114.801 78.0467 116.013L80.151 118.118C80.9746 119.01 81.5171 120.125 81.7106 121.324C81.904 122.523 81.7399 123.752 81.2388 124.859L80.8554 125.608C80.2593 126.675 79.4014 127.573 78.3625 128.217C77.3236 128.861 76.1379 129.231 74.917 129.29H43.6912V160.516C43.751 161.406 44.0287 162.267 44.4998 163.025C44.971 163.782 45.6211 164.411 46.3929 164.858L47.1419 165.242C48.5507 165.946 50.7085 165.598 51.8142 164.484L53.9185 162.38C55.7616 160.707 58.1287 159.727 60.6148 159.606C62.1385 159.604 63.6478 159.902 65.0562 160.484C66.4646 161.065 67.7445 161.919 68.8228 162.995C69.901 164.072 70.7565 165.35 71.3401 166.758C71.9238 168.166 72.2242 169.674 72.2242 171.198H70.4408C70.4408 168.597 69.4075 166.102 67.5681 164.263C65.7287 162.423 63.2339 161.39 60.6326 161.39C58.9028 161.39 56.3973 162.424 55.1846 163.646L53.0803 165.75C52.1879 166.574 51.0726 167.116 49.8737 167.31C48.6749 167.503 47.4455 167.339 46.3394 166.838L45.5904 166.454C44.5232 165.858 43.6252 165 42.981 163.962C42.3368 162.923 41.9675 161.737 41.9078 160.516V129.29H10.682C9.79221 129.35 8.93075 129.628 8.17351 130.099C7.41628 130.57 6.78651 131.22 6.33968 131.992L5.95626 132.741C5.25186 134.15 5.5996 136.308 6.71417 137.413L8.81848 139.517C10.4911 141.361 11.4714 143.728 11.5915 146.214C11.5939 147.738 11.2958 149.247 10.7143 150.655C10.1328 152.064 9.27937 153.344 8.20276 154.422C7.12616 155.5 5.84752 156.355 4.44001 156.939C3.0325 157.523 1.52372 157.823 0 157.823L0 156.04C2.6013 156.04 5.09606 155.006 6.93546 153.167C8.77486 151.328 9.80822 148.833 9.80822 146.232C9.80822 144.502 8.7739 141.996 7.55233 140.784L5.44802 138.679C4.62437 137.787 4.08192 136.672 3.88845 135.473C3.69498 134.274 3.85906 133.045 4.3602 131.938L4.74361 131.189C5.33975 130.122 6.19762 129.224 7.2365 128.58C8.27537 127.936 9.46108 127.566 10.682 127.507H41.9078V96.2811C41.848 95.3912 41.5703 94.5298 41.0992 93.7725C40.6281 93.0153 39.978 92.3855 39.2061 91.9387L38.4571 91.5553C37.0394 90.8419 34.8905 91.1986 33.7849 92.3132L31.6805 94.4175C29.8343 96.0965 27.4593 97.0774 24.9664 97.1905C21.8921 97.1905 18.9438 95.9693 16.7699 93.7955C14.5961 91.6216 13.3748 88.6733 13.3748 85.599C13.3748 82.5247 14.5961 79.5764 16.7699 77.4026C18.9438 75.2287 21.8921 74.0075 24.9664 74.0075C27.1688 74.0075 30.1291 75.229 31.6805 76.7805L33.7849 78.8848C34.4108 79.4428 35.1829 79.8104 36.0105 79.9447C36.8382 80.079 37.687 79.9742 38.4571 79.6427L39.2061 79.2593C39.978 78.8125 40.6281 78.1827 41.0992 77.4255C41.5703 76.6683 41.848 75.8068 41.9078 74.917V43.6912H10.682C9.46108 43.6315 8.27537 43.2622 7.2365 42.618C6.19762 41.9738 5.33975 41.0758 4.74361 40.0086L4.3602 39.2596C3.85672 38.1539 3.69137 36.9241 3.88492 35.7247C4.07847 34.5253 4.6223 33.4099 5.44802 32.5187L7.55233 30.4144C8.89675 28.9045 9.69169 26.9847 9.80822 24.9664C9.80822 22.3651 8.77486 19.8703 6.93546 18.0309C5.09606 16.1915 2.6013 15.1582 0 15.1582L0 13.3748C3.07427 13.3748 6.02262 14.5961 8.19645 16.7699C10.3703 18.9438 11.5915 21.8921 11.5915 24.9664C11.5915 27.1688 10.37 30.1291 8.81848 31.6805L6.71417 33.7849C6.15625 34.4108 5.78856 35.1829 5.6543 36.0105C5.52004 36.8382 5.6248 37.687 5.95626 38.4571L6.33968 39.2061C6.78651 39.978 7.41628 40.6281 8.17351 41.0992C8.93075 41.5703 9.79221 41.848 10.682 41.9078H41.9078V10.682C41.9675 9.46108 42.3368 8.27537 42.981 7.2365C43.6252 6.19762 44.5232 5.33975 45.5904 4.74361L46.3394 4.3602C47.4451 3.85672 48.6749 3.69137 49.8743 3.88492C51.0737 4.07847 52.1891 4.6223 53.0803 5.44802L55.1846 7.55233C56.6945 8.89675 58.6143 9.69169 60.6326 9.80822C63.2339 9.80822 65.7287 8.77486 67.5681 6.93546C69.4075 5.09606 70.4408 2.6013 70.4408 0H72.2242C72.2242 3.07427 71.0029 6.02262 68.8291 8.19645C66.6553 10.3703 63.7069 11.5915 60.6326 11.5915C58.1397 11.4784 55.7647 10.4975 53.9185 8.81848L51.8142 6.71417C51.1888 6.15528 50.4166 5.78695 49.5887 5.65266C48.7608 5.51837 47.9118 5.62371 47.1419 5.95626L46.3929 6.33968C45.6211 6.78651 44.971 7.41628 44.4998 8.17351C44.0287 8.93075 43.751 9.79221 43.6912 10.682V41.9078H74.917C76.1379 41.9675 77.3236 42.3368 78.3625 42.981C79.4014 43.6252 80.2593 44.5232 80.8554 45.5904L81.2388 46.3394C81.7423 47.4451 81.9076 48.6749 81.7141 49.8743C81.5205 51.0737 80.9767 52.1891 80.151 53.0803L78.0467 55.1846C76.7023 56.6945 75.9073 58.6143 75.7908 60.6326C75.7908 63.2339 76.8242 65.7287 78.6636 67.5681C80.5029 69.4075 82.9977 70.4408 85.599 70.4408C88.2003 70.4408 90.6951 69.4075 92.5345 67.5681C94.3739 65.7287 95.4072 63.2339 95.4072 60.6326C95.4072 58.9028 94.3729 56.3973 93.1513 55.1846L91.047 53.0803C90.2234 52.1879 89.6809 51.0726 89.4875 49.8737C89.294 48.6749 89.4581 47.4455 89.9592 46.3394L90.3426 45.5904C90.9388 44.5232 91.7966 43.6252 92.8355 42.981C93.8744 42.3368 95.0601 41.9675 96.2811 41.9078H127.507V10.682C127.447 9.79221 127.169 8.93075 126.698 8.17351C126.227 7.41628 125.577 6.78651 124.805 6.33968L124.056 5.95626C122.638 5.24294 120.49 5.5996 119.384 6.71417L117.28 8.81848C115.433 10.4975 113.058 11.4784 110.565 11.5915C107.491 11.5915 104.543 10.3703 102.369 8.19645C100.195 6.02262 98.9739 3.07427 98.9739 0L100.757 0C100.757 2.6013 101.791 5.09606 103.63 6.93546C105.469 8.77486 107.964 9.80822 110.565 9.80822C112.295 9.80822 114.801 8.7739 116.013 7.55233L118.118 5.44802C119.01 4.62437 120.125 4.08192 121.324 3.88845C122.523 3.69498 123.752 3.85906 124.859 4.3602L125.608 4.74361C126.675 5.33975 127.573 6.19762 128.217 7.2365C128.861 8.27537 129.231 9.46108 129.29 10.682V41.9078H160.516C161.406 41.848 162.267 41.5703 163.025 41.0992C163.782 40.6281 164.411 39.978 164.858 39.2061L165.242 38.4571C165.955 37.0394 165.598 34.8905 164.484 33.7849L162.38 31.6805C160.701 29.8343 159.72 27.4593 159.606 24.9664C159.606 21.8921 160.828 18.9438 163.002 16.7699C165.175 14.5961 168.124 13.3748 171.198 13.3748ZM74.917 127.507C75.8068 127.447 76.6683 127.169 77.4255 126.698C78.1827 126.227 78.8125 125.577 79.2593 124.805L79.6427 124.056C80.3561 122.638 79.9994 120.49 78.8848 119.384L76.7805 117.28C75.1015 115.433 74.1206 113.058 74.0075 110.565C74.0075 107.491 75.2287 104.543 77.4026 102.369C79.5764 100.195 82.5247 98.9739 85.599 98.9739C88.6733 98.9739 91.6216 100.195 93.7955 102.369C95.9693 104.543 97.1905 107.491 97.1905 110.565C97.1905 112.768 95.969 115.728 94.4175 117.28L92.3132 119.384C91.7553 120.01 91.3876 120.782 91.2533 121.61C91.1191 122.437 91.2238 123.286 91.5553 124.056L91.9387 124.805C92.3855 125.577 93.0153 126.227 93.7725 126.698C94.5298 127.169 95.3912 127.447 96.2811 127.507H127.507V96.2811C127.566 95.0601 127.936 93.8744 128.58 92.8355C129.224 91.7966 130.122 90.9388 131.189 90.3426L131.938 89.9592C133.044 89.4557 134.274 89.2904 135.473 89.4839C136.673 89.6775 137.788 90.2213 138.679 91.047L140.784 93.1513C142.294 94.4958 144.213 95.2907 146.232 95.4072C148.833 95.4072 151.328 94.3739 153.167 92.5345C155.006 90.6951 156.04 88.2003 156.04 85.599C156.04 82.9977 155.006 80.5029 153.167 78.6636C151.328 76.8242 148.833 75.7908 146.232 75.7908C144.502 75.7908 141.996 76.8251 140.784 78.0467L138.679 80.151C137.787 80.9746 136.672 81.5171 135.473 81.7106C134.274 81.904 133.045 81.7399 131.938 81.2388L131.189 80.8554C130.122 80.2593 129.224 79.4014 128.58 78.3625C127.936 77.3236 127.566 76.1379 127.507 74.917V43.6912H96.2811C95.3912 43.751 94.5298 44.0287 93.7725 44.4998C93.0153 44.971 92.3855 45.6211 91.9387 46.3929L91.5553 47.1419C90.8509 48.5507 91.1986 50.7085 92.3132 51.8142L94.4175 53.9185C96.0901 55.7616 97.0704 58.1287 97.1905 60.6148C97.1917 62.137 96.893 63.6446 96.3116 65.0514C95.7301 66.4582 94.8773 67.7367 93.8018 68.8139C91.6296 70.9894 88.6822 72.2129 85.6079 72.2152C84.0857 72.2164 82.5782 71.9177 81.1714 71.3363C79.7646 70.7549 78.4861 69.902 77.4089 68.8265C75.2334 66.6543 74.0098 63.7069 74.0075 60.6326C74.1206 58.1397 75.1015 55.7647 76.7805 53.9185L78.8848 51.8142C79.4437 51.1888 79.812 50.4166 79.9463 49.5887C80.0806 48.7608 79.9753 47.9118 79.6427 47.1419L79.2593 46.3929C78.8125 45.6211 78.1827 44.971 77.4255 44.4998C76.6683 44.0287 75.8068 43.751 74.917 43.6912H43.6912V74.917C43.6315 76.1379 43.2622 77.3236 42.618 78.3625C41.9738 79.4014 41.0758 80.2593 40.0086 80.8554L39.2596 81.2388C38.1539 81.7423 36.9241 81.9076 35.7247 81.7141C34.5253 81.5205 33.4099 80.9767 32.5187 80.151L30.4144 78.0467C28.9045 76.7023 26.9847 75.9073 24.9664 75.7908C22.3651 75.7908 19.8703 76.8242 18.0309 78.6636C16.1915 80.5029 15.1582 82.9977 15.1582 85.599C15.1582 88.2003 16.1915 90.6951 18.0309 92.5345C19.8703 94.3739 22.3651 95.4072 24.9664 95.4072C26.6962 95.4072 29.2017 94.3729 30.4144 93.1513L32.5187 91.047C33.4111 90.2234 34.5264 89.6809 35.7253 89.4875C36.9241 89.294 38.1535 89.4581 39.2596 89.9592L40.0086 90.3426C41.0758 90.9388 41.9738 91.7966 42.618 92.8355C43.2622 93.8744 43.6315 95.0601 43.6912 96.2811V127.507H74.917Z" fill="#9A9A9A" fill-opacity="0.2"/>
</svg>
