<svg width="208" height="157" viewBox="0 0 208 157" fill="none" xmlns="http://www.w3.org/2000/svg">
<path d="M91.749 47.181C91.749 47.181 75.681 35.2762 59.6182 36.8958C43.5554 38.5154 27.3262 59.2576 27.3262 59.2576L32.5262 63.205C32.5262 63.205 59.4778 40.812 74.0742 57.3672C88.6706 73.9224 91.749 47.181 91.749 47.181Z" fill="#1F9E98"/>
<path opacity="0.2" d="M91.749 47.181C91.749 47.181 75.681 35.2762 59.6182 36.8958C43.5554 38.5154 27.3262 59.2576 27.3262 59.2576L32.5262 63.205C32.5262 63.205 59.4778 40.812 74.0742 57.3672C88.6706 73.9224 91.749 47.181 91.749 47.181Z" fill="white"/>
<path d="M79.6119 45.5198H24.4399V81.2184H79.6119V45.5198Z" fill="#414141"/>
<path opacity="0.45" d="M168.906 121.75C167.89 121.544 166.932 121.115 166.102 120.492C165.272 119.87 164.59 119.07 164.107 118.151V118.099L139.485 71.1416L125.934 80.7498L135.517 110.923C135.77 111.716 135.827 112.559 135.684 113.379C135.541 114.2 135.202 114.973 134.695 115.634C134.189 116.294 133.531 116.822 132.776 117.173C132.022 117.523 131.195 117.686 130.364 117.646C123.084 117.313 115.341 117.125 107.297 117.125C65.7384 117.125 32.0476 121.974 32.0476 127.957C32.0476 133.941 65.7384 138.795 107.297 138.795C148.855 138.795 182.52 133.946 182.52 127.973C182.52 125.65 177.481 123.51 168.906 121.75Z" fill="#E6E6E6"/>
<path d="M90.6047 124.421C90.6047 124.421 91.3743 127.025 93.6571 127.332C95.9399 127.64 96.4183 129.936 94.3227 130.405C92.2271 130.874 87.0427 127.931 87.0427 127.931L87.3703 124.624L90.6047 124.421Z" fill="#1F9E98"/>
<path d="M46.1603 123.979C46.1603 123.979 43.5187 124.551 43.0403 126.806C42.5619 129.061 40.2427 129.363 39.9203 127.233C39.5979 125.103 42.9415 120.161 42.9415 120.161L46.2071 120.75L46.1603 123.979Z" fill="#1F9E98"/>
<path d="M46.514 85.0981C46.514 85.0981 44.0804 96.4717 52.8424 101.346C61.6044 106.22 89.2424 97.4455 84.9732 125.072H91.1404C91.1404 125.072 99.112 102.158 78.4316 94.0137L72.1552 86.8844L46.514 85.0981Z" fill="#3D3D3D"/>
<path d="M131.599 76.8885L129.501 74.8809L116.381 88.6306L118.479 90.6382L131.599 76.8885Z" fill="#414141"/>
<path opacity="0.08" d="M131.599 76.8885L129.501 74.8809L116.381 88.6306L118.479 90.6382L131.599 76.8885Z" fill="black"/>
<path d="M130.577 75.9041L128.479 73.8965L115.359 87.6462L117.457 89.6538L130.577 75.9041Z" fill="#414141"/>
<path d="M136.283 78.4344C139.656 74.8995 140.482 70.2072 138.127 67.9539C135.773 65.7006 131.13 66.7395 127.757 70.2743C124.384 73.8092 123.558 78.5015 125.912 80.7548C128.267 83.0081 132.91 81.9692 136.283 78.4344Z" fill="#414141"/>
<path opacity="0.08" d="M136.283 78.4344C139.656 74.8995 140.482 70.2072 138.127 67.9539C135.773 65.7006 131.13 66.7395 127.757 70.2743C124.384 73.8092 123.558 78.5015 125.912 80.7548C128.267 83.0081 132.91 81.9692 136.283 78.4344Z" fill="black"/>
<path d="M135.259 77.458C138.632 73.9232 139.457 69.2309 137.103 66.9776C134.748 64.7242 130.105 65.7631 126.732 69.298C123.359 72.8329 122.533 77.5252 124.888 79.7785C127.242 82.0318 131.886 80.9929 135.259 77.458Z" fill="#414141"/>
<path opacity="0.57" d="M133.811 76.0727C136.039 73.7376 136.585 70.6381 135.03 69.1498C133.475 67.6615 130.408 68.348 128.18 70.6831C125.951 73.0182 125.406 76.1176 126.961 77.606C128.516 79.0943 131.583 78.4078 133.811 76.0727Z" fill="white"/>
<path d="M113.49 48.4673C113.49 48.4673 111.145 51.8783 108.867 53.5552C108.646 53.7163 108.396 53.8323 108.13 53.8965C107.865 53.9607 107.589 53.9718 107.319 53.9293C107.049 53.8867 106.79 53.7913 106.557 53.6485C106.324 53.5056 106.121 53.3182 105.96 53.0969C105.134 51.9356 104.354 50.1233 105.388 48.1444L106.73 44.5667C107.078 43.8829 107.628 43.3236 108.306 42.9656C108.984 42.6076 109.756 42.4683 110.516 42.567C113.36 42.7336 115.019 46.4623 113.49 48.4673Z" fill="#F4A28C"/>
<path d="M107.552 45.301L96.9697 49.5713L98.2697 57.112L105.898 50.8785L107.552 45.301Z" fill="#F4A28C"/>
<path d="M112.59 47.9465C111.573 47.1702 110.648 46.279 109.834 45.2906C109.761 45.96 109.494 46.5934 109.066 47.1132C108.639 47.6331 108.069 48.0167 107.427 48.2173C106.808 48.4213 106.138 48.4035 105.531 48.167C104.923 47.9304 104.417 47.4898 104.099 46.9206L107.531 42.8586C108 42.2575 108.623 41.7948 109.333 41.5197C110.044 41.2447 110.815 41.1674 111.566 41.2963C112.215 41.4081 112.856 41.5612 113.485 41.7545C115.045 42.2753 116.132 44.4729 117.848 44.5459C118.02 44.5543 118.188 44.6075 118.334 44.7001C118.48 44.7928 118.599 44.9218 118.68 45.0745C118.761 45.2272 118.802 45.3984 118.797 45.5714C118.792 45.7444 118.743 45.9132 118.654 46.0613C117.811 47.4622 115.97 49.2432 113.719 48.5297C113.313 48.3988 112.932 48.2017 112.59 47.9465Z" fill="#3D3D3D"/>
<path d="M107.848 48.4047C107.848 48.4047 108.836 47.1549 107.848 46.4831C106.86 45.8113 105.409 47.6132 106.527 48.8161L107.848 48.4047Z" fill="#F4A28C"/>
<path d="M111.904 50.54L111.779 52.5033C111.769 52.6132 111.731 52.7188 111.67 52.8105C111.608 52.9023 111.525 52.9773 111.428 53.0289C111.33 53.0806 111.222 53.1071 111.112 53.1063C111.001 53.1055 110.893 53.0772 110.796 53.0241L109.387 52.2429L111.904 50.54Z" fill="#F4A28C"/>
<path opacity="0.31" d="M105.04 51.5712C105.04 51.5712 105.357 49.2017 106.21 48.3008C106.21 48.3008 102.357 49.6027 102.268 53.847L105.04 51.5712Z" fill="#CE8172"/>
<path opacity="0.08" d="M35.1831 80.2967C35.1831 80.2967 35.0167 55.7321 64.4799 50.54L47.1691 81.2185H35.2091L35.1831 80.2967Z" fill="black"/>
<path d="M99.6735 59.7211L98.7999 54.6332C98.4583 52.5582 97.5964 50.604 96.295 48.9536C94.9935 47.3032 93.2951 46.0106 91.3587 45.1969C89.6733 44.5221 87.911 44.0586 86.1119 43.8169C83.8031 43.494 80.5687 43.8169 76.9495 44.7699C61.3599 48.8683 49.9199 62.0958 47.5539 78.0417L46.5139 85.0982L72.1551 86.8844C72.1551 86.8844 70.8551 79.5936 79.9551 79.5936C89.0551 79.5936 100.578 79.6874 99.6735 59.7211Z" fill="#1F9E98"/>
<path opacity="0.08" d="M74.5471 51.8315C74.5471 51.8315 62.1035 54.024 48.4275 73.7611L46.5139 85.0982L65.9723 86.5459L74.5471 51.8315Z" fill="black"/>
<path d="M88.8159 60.9084C91.2443 52.7948 81.8271 46.2331 75.1139 51.3887C69.4979 55.6955 63.1539 63.4497 62.9043 76.5366C62.4727 100.153 85.0615 95.93 115.632 86.8843L114.66 80.0049C114.66 80.0049 78.0519 86.9364 83.0231 75.0212C85.1031 70.0374 87.5263 65.2255 88.8159 60.9084Z" fill="#1F9E98"/>
<path opacity="0.2" d="M88.8159 60.9084C91.2443 52.7948 81.8271 46.2331 75.1139 51.3887C69.4979 55.6955 63.1539 63.4497 62.9043 76.5366C62.4727 100.153 85.0615 95.93 115.632 86.8843L114.66 80.0049C114.66 80.0049 78.0519 86.9364 83.0231 75.0212C85.1031 70.0374 87.5263 65.2255 88.8159 60.9084Z" fill="white"/>
<path d="M75.9668 94.071C75.9668 94.071 76.7208 120.188 46.2073 125.072L45.0269 119.537C45.0269 119.537 69.4669 113.47 53.6797 97.2165L75.9668 94.071Z" fill="#3D3D3D"/>
<path opacity="0.08" d="M124.03 129.192C125.863 129.192 127.348 128.641 127.348 127.963C127.348 127.284 125.863 126.734 124.03 126.734C122.198 126.734 120.713 127.284 120.713 127.963C120.713 128.641 122.198 129.192 124.03 129.192Z" fill="black"/>
<path opacity="0.08" d="M136.718 126.01C138.551 126.01 140.036 125.46 140.036 124.781C140.036 124.102 138.551 123.552 136.718 123.552C134.886 123.552 133.401 124.102 133.401 124.781C133.401 125.46 134.886 126.01 136.718 126.01Z" fill="black"/>
<path opacity="0.08" d="M149.495 128.468C151.327 128.468 152.812 127.918 152.812 127.239C152.812 126.56 151.327 126.01 149.495 126.01C147.663 126.01 146.177 126.56 146.177 127.239C146.177 127.918 147.663 128.468 149.495 128.468Z" fill="black"/>
<path opacity="0.08" d="M169.057 129.702C170.889 129.702 172.375 129.152 172.375 128.473C172.375 127.794 170.889 127.244 169.057 127.244C167.225 127.244 165.74 127.794 165.74 128.473C165.74 129.152 167.225 129.702 169.057 129.702Z" fill="black"/>
<path opacity="0.08" d="M111.451 125.734C113.324 125.734 114.842 125.169 114.842 124.473C114.842 123.777 113.324 123.213 111.451 123.213C109.579 123.213 108.061 123.777 108.061 124.473C108.061 125.169 109.579 125.734 111.451 125.734Z" fill="black"/>
<path d="M114.847 81.3278C114.847 81.3278 123.261 80.4373 123.999 83.7286C124.738 87.0198 123.126 88.7644 115.554 86.3324L114.847 81.3278Z" fill="#F4A28C"/>
<path d="M31.0286 81.2185C31.0286 81.2185 32.2402 86.1345 37.0918 85.0982C41.9434 84.0619 38.4802 78.0314 31.0286 81.2185Z" fill="#F4A28C"/>
</svg>
