<svg width="24" height="24" viewBox="0 0 24 24" fill="none" xmlns="http://www.w3.org/2000/svg">
<path d="M10.6331 0C16.5025 0 21.2661 4.76361 21.2661 10.6331C21.2661 16.5025 16.5025 21.2661 10.6331 21.2661C4.76361 21.2661 0 16.5025 0 10.6331C0 4.76361 4.76361 0 10.6331 0ZM10.6331 18.9032C15.2017 18.9032 18.9032 15.2017 18.9032 10.6331C18.9032 6.06321 15.2017 2.3629 10.6331 2.3629C6.06321 2.3629 2.3629 6.06321 2.3629 10.6331C2.3629 15.2017 6.06321 18.9032 10.6331 18.9032ZM20.6577 18.9871L24 22.3282L22.3282 24L18.9871 20.6577L20.6577 18.9871Z" fill="#9A9A9A"/>
</svg>
