<svg width="29" height="30" viewBox="0 0 29 30" fill="none" xmlns="http://www.w3.org/2000/svg">
<path opacity="0.1" fill-rule="evenodd" clip-rule="evenodd" d="M0 15C0 6.99187 6.49187 0.5 14.5 0.5C22.5081 0.5 29 6.99187 29 15C29 23.0081 22.5081 29.5 14.5 29.5C6.49187 29.5 0 23.0081 0 15Z" fill="white"/>
<path fill-rule="evenodd" clip-rule="evenodd" d="M14.0657 12.2857L14.0962 12.7875L13.589 12.726C11.7431 12.4905 10.1305 11.6918 8.76123 10.3505L8.09182 9.68491L7.9194 10.1764C7.55427 11.272 7.78755 12.4291 8.54823 13.2073C8.95393 13.6373 8.86265 13.6988 8.16282 13.4428C7.9194 13.3609 7.70641 13.2994 7.68613 13.3302C7.61513 13.4018 7.85855 14.3336 8.05125 14.7022C8.31496 15.2142 8.85251 15.7159 9.44077 16.0129L9.93775 16.2484L9.34949 16.2586C8.78151 16.2586 8.76123 16.2689 8.82208 16.4839C9.02493 17.1495 9.82618 17.856 10.7187 18.1632L11.3476 18.3782L10.7999 18.7059C9.98846 19.1769 9.03507 19.4431 8.08168 19.4636C7.62527 19.4738 7.25 19.5148 7.25 19.5455C7.25 19.6479 8.48738 20.2213 9.20749 20.4466C11.3678 21.1121 13.9339 20.8254 15.8609 19.6888C17.2302 18.8799 18.5994 17.2723 19.2384 15.7159C19.5832 14.8866 19.9281 13.3711 19.9281 12.6441C19.9281 12.1731 19.9585 12.1117 20.5265 11.5485C20.8612 11.2208 21.1756 10.8625 21.2364 10.7601C21.3379 10.5655 21.3277 10.5655 20.8105 10.7396C19.9483 11.0468 19.8266 11.0058 20.2526 10.545C20.567 10.2174 20.9423 9.62348 20.9423 9.44941C20.9423 9.41869 20.7902 9.46989 20.6178 9.56204C20.4352 9.66444 20.0295 9.81803 19.7252 9.91018L19.1775 10.0843L18.6805 9.74635C18.4067 9.56204 18.0213 9.35725 17.8184 9.29582C17.3012 9.15246 16.5101 9.17294 16.0435 9.33677C14.7757 9.79755 13.9744 10.9853 14.0657 12.2857Z" fill="white"/>
</svg>
