<svg width="29" height="30" viewBox="0 0 29 30" fill="none" xmlns="http://www.w3.org/2000/svg">
<path opacity="0.1" fill-rule="evenodd" clip-rule="evenodd" d="M0 15C0 6.99187 6.49187 0.5 14.5 0.5C22.5081 0.5 29 6.99187 29 15C29 23.0081 22.5081 29.5 14.5 29.5C6.49187 29.5 0 23.0081 0 15Z" fill="white"/>
<path fill-rule="evenodd" clip-rule="evenodd" d="M20.5427 10.0152C21.2082 10.1979 21.7323 10.7359 21.9102 11.4193C22.2334 12.6577 22.2334 15.2417 22.2334 15.2417C22.2334 15.2417 22.2334 17.8256 21.9102 19.0641C21.7323 19.7474 21.2082 20.2855 20.5427 20.4682C19.3366 20.8 14.5001 20.8 14.5001 20.8C14.5001 20.8 9.66347 20.8 8.45734 20.4682C7.79183 20.2855 7.26772 19.7474 7.08985 19.0641C6.76672 17.8256 6.76672 15.2417 6.76672 15.2417C6.76672 15.2417 6.76672 12.6577 7.08985 11.4193C7.26772 10.7359 7.79183 10.1979 8.45734 10.0152C9.66347 9.68335 14.5001 9.68335 14.5001 9.68335C14.5001 9.68335 19.3366 9.68335 20.5427 10.0152ZM13.0501 13.0666V17.9L16.9167 15.4834L13.0501 13.0666Z" fill="white"/>
</svg>
